<svg xmlns="http://www.w3.org/2000/svg" viewBox="0 0 96 96" style="background: transparent;">
  <defs>
    <linearGradient id="trophyGrad" x1="0%" y1="0%" x2="100%" y2="100%">
      <stop offset="0%" style="stop-color:#00BB72;stop-opacity:0.35" />
      <stop offset="100%" style="stop-color:#004645;stop-opacity:0.18" />
    </linearGradient>
  </defs>
  <!-- Trophy with 3D effect -->
  <!-- Cup -->
  <path d="M 30 30 L 30 60 Q 30 70 48 70 Q 66 70 66 60 L 66 30 Q 66 20 48 20 Q 30 20 30 30 Z" fill="url(#trophyGrad)"/>
  <!-- Base -->
  <rect x="38" y="70" width="20" height="6" rx="2" fill="url(#trophyGrad)"/>
  <rect x="42" y="76" width="12" height="4" rx="1" fill="#00BB72" opacity="0.3"/>
  <!-- Handle left -->
  <path d="M 30 35 Q 20 40 20 50 Q 20 45 25 42 Q 30 38 30 35" fill="none" stroke="#00BB72" stroke-width="3" opacity="0.3"/>
  <!-- Handle right -->
  <path d="M 66 35 Q 76 40 76 50 Q 76 45 71 42 Q 66 38 66 35" fill="none" stroke="#00BB72" stroke-width="3" opacity="0.3"/>
  <!-- Star on top -->
  <path d="M 48 15 L 50 22 L 57 22 L 51 26 L 53 33 L 48 28 L 43 33 L 45 26 L 39 22 L 46 22 Z" fill="#00BB72" opacity="0.4"/>
</svg>

