<?xml version="1.0" encoding="UTF-8"?>
<svg xmlns="http://www.w3.org/2000/svg" version="1.1" viewBox="350 350 1595 745">
  <defs>
    <style>
      .cls-1 {
        fill: #00bb72;
      }
    </style>
  </defs>
  <!-- Generator: Adobe Illustrator 28.6.0, SVG Export Plug-In . SVG Version: 1.2.0 Build 709)  -->
  <g>
    <g id="Layer_1">
      <g>
        <g>
          <g>
            <path class="cls-1" d="M575.46,517.29h-153.59c1.32,17.6,7.04,31.61,17.16,42.03,10.12,10.27,23.1,15.4,38.95,15.4,12.32,0,22.52-2.93,30.58-8.8,7.92-5.87,16.95-16.72,27.07-32.57l41.81,23.33c-6.46,11-13.28,20.43-20.46,28.27-7.19,7.85-14.89,14.31-23.1,19.36-8.22,5.06-17.09,8.76-26.63,11.11-9.54,2.34-19.88,3.52-31.03,3.52-31.98,0-57.65-10.26-77.02-30.8-19.36-20.69-29.05-48.12-29.05-82.3s9.39-61.32,28.17-82.3c18.92-20.69,44.01-31.02,75.26-31.02s56.48,10.05,74.82,30.14c18.19,19.95,27.29,47.61,27.29,82.96l-.22,11.66ZM524.63,476.81c-6.9-26.4-23.54-39.61-49.95-39.61-6.02,0-11.66.92-16.94,2.75-5.28,1.84-10.09,4.48-14.41,7.93-4.33,3.45-8.03,7.59-11.11,12.43-3.08,4.84-5.43,10.34-7.04,16.5h99.46Z"/>
            <path class="cls-1" d="M1092.48,398.47h49.51v19.14c9.09-9.53,17.16-16.06,24.21-19.58,7.18-3.67,15.69-5.5,25.52-5.5,13.06,0,26.7,4.25,40.93,12.76l-22.67,45.33c-9.39-6.75-18.56-10.12-27.51-10.12-26.99,0-40.49,20.39-40.49,61.17v111.13h-49.51v-214.33Z"/>
            <path class="cls-1" d="M1348.39,572.97l-96.38-174.5h57.43l65.57,123.23,61.17-123.23h55.89l-170.76,330.95h-56.55l83.62-156.46Z"/>
          </g>
          <path class="cls-1" d="M906.62,398.47v123.01c0,35.5,14.01,53.25,42.03,53.25s42.03-17.75,42.03-53.25v-166.47h49.51v167.57c0,17.16-2.13,31.98-6.38,44.45-4.11,11.15-11.22,21.2-21.35,30.14-16.72,14.52-38,21.78-63.81,21.78s-46.87-7.26-63.59-21.78c-10.27-8.95-17.53-18.99-21.79-30.14-4.11-9.97-6.16-24.79-6.16-44.45v-124.11h49.51Z"/>
        </g>
        <path class="cls-1" d="M751.99,355.45v94.75c0,35.5-14.01,53.25-42.03,53.25s-42.03-17.75-42.03-53.25v-50.16h-49.51v51.26c0,19.66,2.05,34.48,6.16,44.45,4.25,11.15,11.52,21.2,21.78,30.14,16.72,14.52,37.92,21.78,63.59,21.78s47.09-7.26,63.81-21.78c10.12-8.95,17.24-18.99,21.35-30.14,4.25-12.47,6.38-27.29,6.38-44.45v-95.86h-49.51Z"/>
        <path class="cls-1" d="M795.12,555.59c-4.11-11.15-11.22-21.2-21.35-30.14-16.72-14.52-38-21.78-63.81-21.78s-46.87,7.26-63.59,21.78c-10.27,8.95-17.53,18.99-21.78,30.14-4.11,9.97-6.16,24.79-6.16,44.45v64.8h49.87v-49.47h-.36v-14.23c0-35.5,14.01-53.25,42.03-53.25s42.03,17.75,42.03,53.25v18.91h49.51v-20.01c0-17.16-2.13-31.98-6.38-44.45Z"/>
      </g>
    </g>
  </g>
</svg>